<svg xmlns="http://www.w3.org/2000/svg" width="131.314" height="47.54" viewBox="0 0 131.314 47.54"><path fill-rule="evenodd" clip-rule="evenodd" fill="#84BC30" d="M17.457 15.396c-.18-3.341-3.413-6.613-7.36-6.504-4.125 0-7.181 3.019-7.43 6.504h14.79zM2.63 17.493c.145 4.801 4.234 7.111 7.467 7.074 2.951 0 5.335-1.457 6.578-3.945h2.737c-.889 2.061-2.24 3.623-3.875 4.656-1.6 1.028-3.484 1.563-5.44 1.563C3.448 26.842 0 21.544 0 16.782 0 11.163 4.339 6.65 10.063 6.65c2.701 0 5.188.959 7.002 2.701 2.205 2.135 3.272 5.081 2.985 8.142H2.63zm19.554-10.31h2.489c0 1.067 0 2.135-.034 3.412 1.102-2.486 3.696-4.018 7.109-3.944 5.938.07 8.033 4.122 8.033 8.778v10.878h-2.592V15.964c0-4.124-1.85-6.936-6.152-6.861-3.946.034-6.221 2.417-6.221 6.397v10.807h-2.631V7.183zm28.082 19.124h-2.735L39.996 7.183h2.774l6.148 15.89 6.116-15.89h2.772zm9.998-24.295c.269-.268 2.079-.764 2.079-.764s-.179 2.516-.551 2.892c-.271.269-2.079.77-2.079.77s.176-2.518.551-2.898zm-.671 5.171h2.629v19.124h-2.629zm14.655 19.124H71.51L63.972 7.183h2.775l6.148 15.89 6.115-15.89h2.775zm24.434-10.911c-.18-3.341-3.412-6.613-7.359-6.504-4.127 0-7.184 3.019-7.434 6.504h14.793zm-14.826 2.097c.141 4.801 4.228 7.111 7.466 7.074 2.951 0 5.329-1.457 6.575-3.945h2.737c-.886 2.061-2.237 3.623-3.875 4.656-1.598 1.028-3.484 1.563-5.437 1.563-6.652 0-10.097-5.298-10.097-10.06 0-5.619 4.333-10.132 10.058-10.132 2.703 0 5.191.959 7.004 2.701 2.205 2.135 3.273 5.081 2.988 8.142H83.856zm19.551-10.31h2.49c0 1.067 0 2.135-.039 3.412 1.105-2.486 3.698-4.018 7.112-3.944 5.939.07 8.034 4.122 8.034 8.778v10.878h-2.593V15.964c0-4.124-1.848-6.936-6.152-6.861-3.945.034-6.22 2.417-6.22 6.397v10.807h-2.632V7.183zm21.118 2.097h-3.769V7.183h3.769V0h2.594v7.183h4.195V9.28h-4.195v17.027h-2.594z"/><path fill-rule="evenodd" clip-rule="evenodd" fill="#95C243" d="M9.791 44.48H8.696L6.79 38.601 4.916 44.48H3.835L1.03 36.411h1.171l2.219 6.645 1.935-5.925h.916l1.949 5.925 2.205-6.645h1.156zm7.199.226c-2.805 0-4.259-2.235-4.259-4.245 0-2.37 1.83-4.275 4.245-4.275 1.139 0 2.189.405 2.955 1.141a4.2 4.2 0 0 1 1.26 3.435h-7.35c.059 2.009 1.757 2.985 3.117 2.985l.032-.001c1.245 0 2.25-.614 2.775-1.664h1.155c-.375.869-.945 1.529-1.635 1.965a4.234 4.234 0 0 1-2.295.659zm.08-7.576l-.08.001c-1.739 0-3.029 1.274-3.134 2.746h6.24c-.074-1.389-1.397-2.747-3.026-2.747zm9.535 7.576c-1.515 0-2.7-.735-3.3-1.891v1.665H22.24v-11.1h1.11v4.649c.676-1.14 1.891-1.829 3.285-1.845 2.295 0 4.156 1.726 4.156 4.245 0 2.431-1.741 4.277-4.186 4.277zm-.12-7.5c-1.86 0-3.195 1.439-3.195 3.225 0 1.755 1.275 3.24 3.149 3.24 2.146 0 3.241-1.665 3.241-3.226v-.015c0-1.844-1.395-3.224-3.195-3.224zm13.95 7.5c-2.58 0-4.17-2.011-4.17-4.275 0-2.4 1.741-4.245 4.155-4.245 1.77 0 2.94 1.021 3.3 1.86v-4.665h1.109v11.1h-1.064v-1.665c-.57 1.065-1.651 1.89-3.33 1.89zm.15-7.5c-1.86 0-3.226 1.409-3.226 3.225v.015c.016 1.62 1.141 3.226 3.241 3.226.899 0 1.725-.36 2.295-.945.585-.6.93-1.425.899-2.325 0-.915-.344-1.694-.93-2.265-.57-.586-1.379-.931-2.279-.931zm9.525 7.5c-2.805 0-4.26-2.235-4.26-4.245 0-2.37 1.83-4.275 4.245-4.275 1.139 0 2.189.405 2.955 1.141a4.193 4.193 0 0 1 1.26 3.435h-7.35c.059 2.009 1.757 2.985 3.117 2.985l.033-.001c1.245 0 2.25-.614 2.775-1.664h1.154c-.375.869-.944 1.529-1.635 1.965a4.233 4.233 0 0 1-2.294.659zm.079-7.576l-.079.001c-1.739 0-3.029 1.274-3.135 2.746h6.24c-.074-1.389-1.397-2.747-3.026-2.747zm8.696 7.35H57.73l-3.18-8.069h1.17l2.594 6.704 2.581-6.704h1.169zm7.56.226c-2.805 0-4.26-2.235-4.26-4.245 0-2.37 1.83-4.275 4.246-4.275 1.139 0 2.189.405 2.955 1.141a4.196 4.196 0 0 1 1.26 3.435h-7.35c.059 2.009 1.758 2.985 3.117 2.985l.032-.001c1.246 0 2.25-.614 2.775-1.664h1.154c-.375.869-.943 1.529-1.635 1.965a4.233 4.233 0 0 1-2.294.659zm.079-7.576l-.08.001c-1.739 0-3.029 1.274-3.134 2.746h6.239c-.072-1.389-1.396-2.747-3.025-2.747zm5.59-3.749h1.11v11.1h-1.11zm6.811 11.309c-2.596 0-4.276-1.979-4.276-4.245v-.015c0-2.25 1.68-4.245 4.275-4.245 2.609 0 4.289 1.995 4.289 4.26.001 2.266-1.679 4.245-4.288 4.245zm0-7.469c-1.785 0-3.18 1.38-3.18 3.225v.016c0 1.83 1.395 3.21 3.18 3.21 1.801 0 3.179-1.38 3.179-3.226 0-1.845-1.378-3.225-3.179-3.225zm6.808 10.319h-1.109V36.411h1.051v1.68c.66-1.17 1.83-1.905 3.375-1.905 2.714 0 4.138 2.205 4.138 4.29 0 2.25-1.634 4.23-4.138 4.23-1.786 0-2.942-1.035-3.317-1.876v4.71zm3.106-10.334c-.9 0-1.696.359-2.279.944a3.335 3.335 0 0 0-.9 2.311c0 .899.345 1.71.929 2.295.57.57 1.381.915 2.282.915 1.814 0 3.209-1.38 3.209-3.226v-.015c-.001-1.514-1.066-3.224-3.241-3.224zm17.986 7.274h-1.111v-4.439c0-.855-.135-1.62-.6-2.146-.33-.42-.84-.675-1.605-.675-.705 0-1.395.285-1.77.84-.404.57-.48 1.021-.48 1.936v4.484h-1.11v-4.484c.032-.9-.105-1.426-.419-1.92-.375-.525-.945-.841-1.77-.855l-.085-.001c-.712 0-1.309.364-1.626.826-.344.465-.539 1.08-.539 1.935v4.5h-1.109v-8.069h1.049v1.274c.509-1.02 1.635-1.5 2.55-1.5.84 0 1.635.271 2.205.916.209.209.479.749.526.839.119-.225.283-.54.584-.854.525-.555 1.32-.9 2.22-.9.825 0 1.619.24 2.174.811.705.705.916 1.574.916 3v4.482zm5.459.226c-2.805 0-4.26-2.235-4.26-4.245 0-2.37 1.83-4.275 4.245-4.275 1.14 0 2.189.405 2.956 1.141a4.192 4.192 0 0 1 1.259 3.435h-7.349c.06 2.009 1.758 2.985 3.118 2.985l.032-.001c1.244 0 2.25-.614 2.776-1.664h1.154c-.375.869-.945 1.529-1.635 1.965a4.25 4.25 0 0 1-2.296.659zm.079-7.576l-.079.001c-1.74 0-3.029 1.274-3.135 2.746h6.241c-.075-1.389-1.399-2.747-3.027-2.747zm12.732 7.35h-1.096v-4.365c0-1.718-.76-2.895-2.528-2.895h-.068c-1.664.015-2.625 1.021-2.625 2.7v4.56h-1.109v-8.069h1.051c0 .449 0 .899-.016 1.439.455-1.026 1.513-1.666 2.906-1.666l.094.001c2.505.03 3.391 1.74 3.391 3.705v4.59zm3.42 0h-1.096v-7.183h-1.59v-.886h1.59v-3.03h1.096v3.03h1.769v.886h-1.769z"/></svg>